<svg width="1024" height="1024" viewBox="0 0 1024 1024" xmlns="http://www.w3.org/2000/svg" role="img" aria-label="Chatify logo">
  <defs>
    <linearGradient id="g" x1="0" y1="0" x2="1" y2="1">
      <stop offset="0" stop-color="#6A7CFF"/>
      <stop offset="1" stop-color="#8A2BE2"/>
    </linearGradient>
    <filter id="shadow" x="-20%" y="-20%" width="140%" height="140%">
      <feDropShadow dx="0" dy="12" stdDeviation="16" flood-opacity="0.18"/>
    </filter>
  </defs>

  <!-- Rounded square background -->
  <rect x="64" y="64" width="896" height="896" rx="196" fill="url(#g)"/>

  <!-- C-shaped chat bubble -->
  <g filter="url(#shadow)">
    <!-- Outer bubble C -->
    <path fill="#FFFFFF" d="M742 564c0 126-104 228-232 228-48 0-93-14-130-37l-84 44c-22 12-48-9-41-33l22-79c-37-41-58-95-58-153 0-129 110-236 247-236 137 0 246 103 246 233z"/>
    <!-- Inner cutout to form C -->
    <path fill="url(#g)" d="M674 560c0 89-75 162-168 162-37 0-72-11-101-30l-19-13-38 20 8-30-8-9c-28-31-43-69-43-110 0-96 83-174 185-174 102 0 184 77 184 174z"/>
  </g>

  <!-- Message dot -->
  <circle cx="620" cy="504" r="30" fill="#FFFFFF" opacity="0.95"/>
</svg>
